<?xml version="1.0" standalone="no"?><svg xmlns="http://www.w3.org/2000/svg" viewBox="0 0 1440 320"><path fill="#0099ff" fill-opacity="1" d="M0,160L16,144C32,128,64,96,96,117.3C128,139,160,213,192,250.7C224,288,256,288,288,266.7C320,245,352,203,384,202.7C416,203,448,245,480,234.7C512,224,544,160,576,122.7C608,85,640,75,672,96C704,117,736,171,768,181.3C800,192,832,160,864,160C896,160,928,192,960,224C992,256,1024,288,1056,266.7C1088,245,1120,171,1152,165.3C1184,160,1216,224,1248,250.7C1280,277,1312,267,1344,245.3C1376,224,1408,192,1424,176L1440,160L1440,320L1424,320C1408,320,1376,320,1344,320C1312,320,1280,320,1248,320C1216,320,1184,320,1152,320C1120,320,1088,320,1056,320C1024,320,992,320,960,320C928,320,896,320,864,320C832,320,800,320,768,320C736,320,704,320,672,320C640,320,608,320,576,320C544,320,512,320,480,320C448,320,416,320,384,320C352,320,320,320,288,320C256,320,224,320,192,320C160,320,128,320,96,320C64,320,32,320,16,320L0,320Z"></path></svg>